<svg width="25" height="25" viewBox="0 0 25 25" fill="none" xmlns="http://www.w3.org/2000/svg">
<path d="M2.41477 24.6088L10.3693 16.643C11.0795 17.2119 11.8963 17.6624 12.8196 17.9943C13.7429 18.3262 14.7254 18.4922 15.767 18.4922C18.3475 18.4922 20.5312 17.5974 22.3182 15.808C24.1061 14.0175 25 11.8303 25 9.24609C25 6.66192 24.1061 4.47463 22.3182 2.68421C20.5312 0.894737 18.3475 0 15.767 0C13.1866 0 11.0024 0.894737 9.21449 2.68421C7.42756 4.47463 6.53409 6.66192 6.53409 9.24609C6.53409 10.2892 6.69981 11.2731 7.03125 12.1977C7.36269 13.1223 7.8125 13.9403 8.38068 14.6515L0.390625 22.6529C0.130207 22.9137 0 23.2338 0 23.6131C0 23.9924 0.142048 24.3243 0.426138 24.6088C0.686554 24.8696 1.01799 25 1.42045 25C1.82292 25 2.15436 24.8696 2.41477 24.6088ZM15.767 15.6472C13.9915 15.6472 12.482 15.0251 11.2386 13.7809C9.99621 12.5358 9.375 11.0242 9.375 9.24609C9.375 7.46799 9.99621 5.95638 11.2386 4.71124C12.482 3.46705 13.9915 2.84495 15.767 2.84495C17.5426 2.84495 19.0521 3.46705 20.2955 4.71124C21.5379 5.95638 22.1591 7.46799 22.1591 9.24609C22.1591 11.0242 21.5379 12.5358 20.2955 13.7809C19.0521 15.0251 17.5426 15.6472 15.767 15.6472Z" fill="#98A2B3"/>
</svg>
